<svg width="294" height="40" viewBox="0 0 294 40" fill="none" xmlns="http://www.w3.org/2000/svg">
<circle cx="20" cy="20" r="18" fill="#FFC133" stroke="#374151" stroke-width="4"/>
<path d="M57.456 29.288C55.072 29.288 53.208 28.624 51.864 27.296C50.52 25.968 49.848 24.072 49.848 21.608V12.2H53.736V21.464C53.736 23.064 54.064 24.216 54.72 24.92C55.376 25.624 56.296 25.976 57.48 25.976C58.664 25.976 59.584 25.624 60.24 24.92C60.896 24.216 61.224 23.064 61.224 21.464V12.2H65.064V21.608C65.064 24.072 64.392 25.968 63.048 27.296C61.704 28.624 59.84 29.288 57.456 29.288ZM66.822 29L74.046 19.04V21.872L67.134 12.2H71.55L76.326 18.944L74.478 18.968L79.182 12.2H83.406L76.542 21.704V18.92L83.814 29H79.326L74.382 21.872H76.158L71.286 29H66.822Z" fill="#F09065"/>
<path d="M95.5003 29L90.8443 16.088H94.3723L98.2363 27.2H96.5563L100.588 16.088H103.756L107.668 27.2H105.988L109.972 16.088H113.284L108.604 29H104.98L101.548 19.472H102.652L99.1003 29H95.5003ZM115.095 29V16.088H118.839V29H115.095ZM116.967 14.288C116.279 14.288 115.719 14.088 115.287 13.688C114.855 13.288 114.639 12.792 114.639 12.2C114.639 11.608 114.855 11.112 115.287 10.712C115.719 10.312 116.279 10.112 116.967 10.112C117.655 10.112 118.215 10.304 118.647 10.688C119.079 11.056 119.295 11.536 119.295 12.128C119.295 12.752 119.079 13.272 118.647 13.688C118.231 14.088 117.671 14.288 116.967 14.288ZM127.664 29.192C126.144 29.192 124.96 28.808 124.112 28.04C123.264 27.256 122.84 26.096 122.84 24.56V13.232H126.584V24.512C126.584 25.056 126.728 25.48 127.016 25.784C127.304 26.072 127.696 26.216 128.192 26.216C128.784 26.216 129.288 26.056 129.704 25.736L130.712 28.376C130.328 28.648 129.864 28.856 129.32 29C128.792 29.128 128.24 29.192 127.664 29.192ZM120.848 18.968V16.088H129.8V18.968H120.848ZM132.884 29V11.192H136.628V19.664L135.788 18.584C136.252 17.72 136.916 17.056 137.78 16.592C138.644 16.128 139.628 15.896 140.732 15.896C141.756 15.896 142.668 16.104 143.468 16.52C144.284 16.92 144.924 17.544 145.388 18.392C145.852 19.224 146.084 20.296 146.084 21.608V29H142.34V22.184C142.34 21.144 142.108 20.376 141.644 19.88C141.196 19.384 140.556 19.136 139.724 19.136C139.132 19.136 138.596 19.264 138.116 19.52C137.652 19.76 137.284 20.136 137.012 20.648C136.756 21.16 136.628 21.816 136.628 22.616V29H132.884ZM156.68 29V12.2H163.952C165.456 12.2 166.752 12.448 167.84 12.944C168.928 13.424 169.768 14.12 170.36 15.032C170.952 15.944 171.248 17.032 171.248 18.296C171.248 19.544 170.952 20.624 170.36 21.536C169.768 22.448 168.928 23.152 167.84 23.648C166.752 24.128 165.456 24.368 163.952 24.368H158.84L160.568 22.616V29H156.68ZM160.568 23.048L158.84 21.2H163.736C164.936 21.2 165.832 20.944 166.424 20.432C167.016 19.92 167.312 19.208 167.312 18.296C167.312 17.368 167.016 16.648 166.424 16.136C165.832 15.624 164.936 15.368 163.736 15.368H158.84L160.568 13.52V23.048ZM173.806 29V16.088H177.382V19.736L176.878 18.68C177.262 17.768 177.878 17.08 178.726 16.616C179.574 16.136 180.606 15.896 181.822 15.896V19.352C181.662 19.336 181.518 19.328 181.39 19.328C181.262 19.312 181.126 19.304 180.982 19.304C179.958 19.304 179.126 19.6 178.486 20.192C177.862 20.768 177.55 21.672 177.55 22.904V29H173.806ZM183.324 29V26.744L190.956 17.72L191.604 18.968H183.492V16.088H194.628V18.344L186.996 27.368L186.324 26.12H194.844V29H183.324ZM203.558 29.192C202.086 29.192 200.79 28.904 199.67 28.328C198.566 27.752 197.71 26.968 197.102 25.976C196.494 24.968 196.19 23.824 196.19 22.544C196.19 21.248 196.486 20.104 197.078 19.112C197.686 18.104 198.51 17.32 199.55 16.76C200.59 16.184 201.766 15.896 203.078 15.896C204.342 15.896 205.478 16.168 206.486 16.712C207.51 17.24 208.318 18.008 208.91 19.016C209.502 20.008 209.798 21.2 209.798 22.592C209.798 22.736 209.79 22.904 209.774 23.096C209.758 23.272 209.742 23.44 209.726 23.6H199.238V21.416H207.758L206.318 22.064C206.318 21.392 206.182 20.808 205.91 20.312C205.638 19.816 205.262 19.432 204.782 19.16C204.302 18.872 203.742 18.728 203.102 18.728C202.462 18.728 201.894 18.872 201.398 19.16C200.918 19.432 200.542 19.824 200.27 20.336C199.998 20.832 199.862 21.424 199.862 22.112V22.688C199.862 23.392 200.014 24.016 200.318 24.56C200.638 25.088 201.078 25.496 201.638 25.784C202.214 26.056 202.886 26.192 203.654 26.192C204.342 26.192 204.942 26.088 205.454 25.88C205.982 25.672 206.462 25.36 206.894 24.944L208.886 27.104C208.294 27.776 207.55 28.296 206.654 28.664C205.758 29.016 204.726 29.192 203.558 29.192ZM212.361 29V16.088H215.937V19.616L215.265 18.584C215.713 17.704 216.345 17.04 217.161 16.592C217.993 16.128 218.937 15.896 219.993 15.896C221.177 15.896 222.209 16.2 223.089 16.808C223.985 17.4 224.577 18.312 224.865 19.544L223.545 19.184C223.977 18.176 224.665 17.376 225.609 16.784C226.569 16.192 227.665 15.896 228.897 15.896C229.921 15.896 230.825 16.104 231.609 16.52C232.409 16.92 233.033 17.544 233.481 18.392C233.945 19.224 234.177 20.296 234.177 21.608V29H230.433V22.184C230.433 21.144 230.217 20.376 229.785 19.88C229.353 19.384 228.745 19.136 227.961 19.136C227.417 19.136 226.929 19.264 226.497 19.52C226.065 19.76 225.729 20.128 225.489 20.624C225.249 21.12 225.129 21.752 225.129 22.52V29H221.385V22.184C221.385 21.144 221.169 20.376 220.737 19.88C220.321 19.384 219.721 19.136 218.937 19.136C218.393 19.136 217.905 19.264 217.473 19.52C217.041 19.76 216.705 20.128 216.465 20.624C216.225 21.12 216.105 21.752 216.105 22.52V29H212.361ZM244.105 29.192C242.633 29.192 241.337 28.904 240.217 28.328C239.113 27.752 238.257 26.968 237.649 25.976C237.041 24.968 236.737 23.824 236.737 22.544C236.737 21.248 237.033 20.104 237.625 19.112C238.233 18.104 239.057 17.32 240.097 16.76C241.137 16.184 242.313 15.896 243.625 15.896C244.889 15.896 246.025 16.168 247.033 16.712C248.057 17.24 248.865 18.008 249.457 19.016C250.049 20.008 250.345 21.2 250.345 22.592C250.345 22.736 250.337 22.904 250.321 23.096C250.305 23.272 250.289 23.44 250.273 23.6H239.785V21.416H248.305L246.865 22.064C246.865 21.392 246.729 20.808 246.457 20.312C246.185 19.816 245.809 19.432 245.329 19.16C244.849 18.872 244.289 18.728 243.649 18.728C243.009 18.728 242.441 18.872 241.945 19.16C241.465 19.432 241.089 19.824 240.817 20.336C240.545 20.832 240.409 21.424 240.409 22.112V22.688C240.409 23.392 240.561 24.016 240.865 24.56C241.185 25.088 241.625 25.496 242.185 25.784C242.761 26.056 243.433 26.192 244.201 26.192C244.889 26.192 245.489 26.088 246.001 25.88C246.529 25.672 247.009 25.36 247.441 24.944L249.433 27.104C248.841 27.776 248.097 28.296 247.201 28.664C246.305 29.016 245.273 29.192 244.105 29.192ZM256.004 26.36L256.1 21.8L262.124 16.088H266.588L260.804 21.968L258.86 23.552L256.004 26.36ZM252.908 29V11.192H256.652V29H252.908ZM262.532 29L258.164 23.576L260.516 20.672L267.068 29H262.532Z" fill="#374151"/>
<path d="M28.7598 15.8165C29.1567 15.3792 29.8442 15.3787 30.2411 15.8161L32.7463 18.5782C33.3292 19.2207 32.8735 20.2498 32.0061 20.2502L30.9842 20.2494C31.001 21.225 30.8841 22.2192 30.6189 23.2088C29.0864 28.9277 23.2078 32.3218 17.4888 30.7894C15.3835 30.2252 13.5949 29.0701 12.2496 27.5526L14.7142 24.9121C15.625 25.9944 16.8639 26.8194 18.3337 27.2134C22.1521 28.2363 26.0763 25.9707 27.0995 22.1525C27.27 21.5164 27.349 20.8776 27.3445 20.2497L26.9946 20.25C26.1271 20.25 25.6709 19.221 26.2536 18.5784L28.7598 15.8165ZM23.0382 10.0786C24.7326 10.5327 26.2217 11.3705 27.4403 12.4704L25.1853 15.1772C24.3359 14.3467 23.2681 13.7152 22.0389 13.3858C18.2206 12.3631 14.295 14.6291 13.2719 18.4474C13.1227 19.0043 13.0455 19.5637 13.0311 20.1158L13.2087 20.1169C14.0542 20.1169 14.5184 21.101 13.9805 21.7532L11.7715 24.4319C11.3715 24.9166 10.6286 24.9166 10.2286 24.432L8.01949 21.7534C7.4816 21.1012 7.94534 20.1172 8.7906 20.1169L9.54604 20.1161C9.57066 19.3028 9.68839 18.4794 9.90811 17.6593C11.4405 11.9405 17.3194 8.54668 23.0382 10.0786Z" fill="#374151"/>
</svg>
